<?xml version="1.0" standalone="no"?>
<!DOCTYPE svg PUBLIC "-//W3C//DTD SVG 20010904//EN"
 "http://www.w3.org/TR/2001/REC-SVG-20010904/DTD/svg10.dtd">
<svg version="1.0" xmlns="http://www.w3.org/2000/svg"
 width="1600.000000pt" height="1600.000000pt" viewBox="0 0 1600.000000 1600.000000"
 preserveAspectRatio="xMidYMid meet">
<metadata>
Created by potrace 1.16, written by Peter Selinger 2001-2019
</metadata>
<g transform="translate(0.000000,1600.000000) scale(0.100000,-0.100000)"
fill="#000000" stroke="none">
<path d="M4888 11489 c-168 -11 -327 -35 -542 -80 -239 -49 -266 -57 -266 -72
0 -32 43 -136 69 -168 16 -19 55 -48 87 -64 76 -39 172 -41 252 -5 l53 23 51
-24 c78 -37 175 -34 249 7 55 30 57 30 79 12 27 -22 112 -48 155 -48 50 0 128
27 173 60 23 16 53 30 66 30 39 0 165 -71 201 -113 42 -49 73 -115 88 -184 6
-29 14 -53 17 -53 3 1 15 23 28 50 45 96 164 185 262 197 27 3 50 8 50 11 0
13 -89 118 -142 167 -213 198 -526 283 -930 254z"/>
<path d="M5954 10940 c-65 -7 -131 -39 -172 -83 -26 -28 -112 -217 -112 -248
0 -11 34 -156 76 -322 307 -1228 580 -2141 728 -2435 47 -93 94 -144 170 -186
93 -51 97 -52 178 -12 158 78 313 94 480 52 107 -27 183 -62 246 -113 l43 -35
92 7 c1068 79 2075 360 2409 672 276 259 418 728 418 1385 0 290 -88 800 -156
905 -8 13 -25 30 -39 39 -24 15 -29 13 -212 -89 -1405 -781 -2490 -1184 -3413
-1267 -69 -7 -145 -10 -169 -8 l-45 3 -22 85 c-12 47 -35 130 -52 185 -17 55
-43 145 -57 200 -15 55 -54 201 -86 325 -52 193 -154 611 -215 873 -10 42 -20
76 -23 76 -3 -1 -34 -5 -67 -9z m4321 -472 c42 -19 54 -56 75 -240 58 -518 51
-993 -21 -1298 -72 -308 -324 -572 -749 -786 -97 -48 -323 -144 -338 -144 -4
1 38 24 93 53 210 110 390 242 530 389 193 201 287 364 353 607 25 95 26 102
30 518 4 470 -2 566 -44 651 -52 106 -139 108 -366 6 -57 -25 -129 -59 -162
-75 -32 -17 -60 -29 -61 -27 -3 3 457 276 558 331 56 30 65 32 102 15z m-221
-390 c3 -46 9 -126 12 -179 l6 -97 -164 -90 c-208 -114 -409 -215 -416 -208
-6 7 -84 328 -80 331 2 1 95 50 208 107 113 58 252 132 310 166 57 33 107 59
111 56 3 -2 9 -41 13 -86z m-755 -335 c6 -21 22 -90 35 -153 14 -63 28 -124
31 -136 6 -19 -14 -30 -205 -118 -116 -54 -213 -96 -215 -94 -3 3 -65 309 -68
341 -2 13 31 31 143 80 80 35 170 75 200 89 30 15 58 27 62 27 4 1 12 -16 17
-36z m774 -317 l-8 -88 -125 -70 c-173 -97 -340 -181 -347 -175 -5 6 -73 270
-70 273 1 1 81 42 177 92 96 50 220 115 275 146 l100 56 3 -73 c1 -39 -1 -112
-5 -161z m-1319 107 c5 -18 31 -164 41 -238 3 -22 11 -55 17 -74 8 -26 7 -35
-3 -42 -20 -12 -413 -169 -425 -169 -8 0 -65 327 -64 372 0 11 13 21 38 28 20
5 111 39 202 74 91 35 170 64 177 65 6 1 14 -7 17 -16z m-561 -215 c4 -18 13
-85 22 -148 9 -63 20 -137 24 -163 8 -45 7 -49 -18 -61 -44 -23 -421 -149
-427 -144 -3 3 -14 82 -24 174 -11 93 -22 186 -25 207 -4 31 -2 37 12 37 10 0
106 29 213 64 107 35 200 64 206 65 7 1 14 -14 17 -31z m1232 -113 c10 -44 24
-102 31 -129 8 -28 11 -53 7 -57 -11 -10 -413 -199 -424 -199 -5 0 -11 10 -14
23 -10 44 -55 257 -55 261 0 3 19 14 43 24 74 33 208 96 297 138 56 27 87 37
91 30 4 -6 15 -47 24 -91z m-1812 -47 c3 -13 11 -86 17 -163 7 -77 16 -160 20
-185 5 -25 6 -48 2 -52 -8 -8 -438 -138 -457 -138 -8 0 -16 56 -24 178 -7 97
-14 195 -17 218 l-6 40 109 28 c59 15 160 42 223 61 63 18 118 33 121 34 4 1
9 -9 12 -21z m2437 12 c0 -30 -43 -224 -61 -276 l-22 -62 -130 -73 c-72 -41
-132 -74 -135 -74 -5 0 -72 242 -72 261 0 7 21 23 48 37 26 14 117 63 202 110
163 90 170 93 170 77z m-1176 -266 c15 -81 26 -148 24 -149 -5 -4 -250 -108
-352 -149 -59 -24 -92 -32 -96 -25 -6 9 -50 263 -50 287 0 6 17 16 38 22 20 7
55 20 77 30 22 10 85 36 140 58 55 22 116 47 135 56 19 8 40 15 46 16 6 0 23
-65 38 -146z m-1845 -64 c7 -102 13 -203 14 -224 l2 -39 -170 -43 c-93 -23
-173 -40 -177 -38 -4 3 -8 11 -8 18 0 8 -27 96 -60 197 -33 101 -61 190 -63
198 -1 13 45 26 223 67 124 28 226 50 226 50 1 -1 7 -84 13 -186z m2501 -61
c46 -182 49 -162 -28 -197 -146 -67 -328 -153 -354 -168 -16 -8 -28 -13 -28
-11 0 3 -13 64 -30 137 -16 73 -30 136 -30 140 0 4 19 15 43 24 23 9 119 54
212 100 94 47 174 83 180 82 5 -1 21 -50 35 -107z m-1260 34 c0 -5 5 -35 10
-68 5 -33 13 -87 16 -120 4 -33 10 -70 15 -82 4 -12 5 -25 0 -27 -25 -16 -461
-169 -465 -164 -4 4 -36 278 -36 299 0 11 40 29 143 64 78 27 176 61 217 76
79 29 100 34 100 22z m685 -307 c34 -156 33 -160 -12 -179 -332 -137 -423
-173 -423 -167 0 4 -11 67 -25 141 -13 74 -21 135 -17 137 4 1 106 44 227 95
121 51 221 92 223 91 1 -1 14 -54 27 -118z m-1281 82 c3 -18 11 -80 17 -138 5
-58 13 -115 15 -126 5 -19 -3 -25 -73 -47 -112 -37 -385 -117 -398 -117 -11 0
-35 200 -35 291 0 34 2 36 43 46 90 23 226 63 312 91 50 17 95 30 102 31 7 1
15 -14 17 -31z m1938 -128 c2 -20 -4 -28 -37 -44 -81 -39 -232 -97 -310 -120
-44 -13 -88 -27 -97 -31 -13 -5 -18 -2 -18 9 0 9 12 21 28 27 15 6 61 26 102
46 258 125 316 151 322 145 3 -4 8 -18 10 -32z m-2543 -184 c6 -88 10 -160 9
-161 -2 -1 -51 -14 -110 -29 -103 -27 -128 -27 -128 -4 0 6 -23 72 -51 147
-38 102 -47 137 -37 140 45 17 294 76 300 72 3 -3 11 -78 17 -165z m1271 96
c0 -5 9 -58 20 -118 24 -134 25 -151 2 -163 -34 -18 -457 -79 -469 -68 -2 2
-9 47 -17 100 l-13 97 41 10 c23 6 50 15 61 20 36 17 350 129 363 129 6 1 12
-3 12 -7z m-603 -283 c5 -44 6 -82 3 -84 -8 -5 -219 -16 -367 -19 l-133 -2 0
23 c0 13 6 23 13 23 12 0 93 25 327 99 69 22 130 40 136 40 7 1 15 -32 21 -80z"/>
<path d="M9655 7750 c-190 -38 -368 -195 -421 -370 -10 -34 -25 -62 -33 -64
-9 -3 -56 -12 -106 -21 -198 -36 -657 -130 -950 -196 -170 -38 -315 -69 -321
-69 -8 0 -12 22 -12 64 -1 78 -32 188 -80 280 -63 121 -231 237 -421 292 -85
24 -104 26 -210 21 -187 -8 -362 -78 -472 -187 -65 -64 -129 -186 -153 -290
-20 -83 -20 -237 0 -320 48 -204 204 -383 408 -467 76 -32 78 -33 36 -29 -25
3 -92 8 -150 11 -308 17 -784 74 -1085 130 -132 25 -359 83 -429 111 -21 8
-40 13 -43 11 -7 -8 233 -106 387 -159 520 -178 1089 -284 1765 -329 221 -15
832 -15 1090 0 896 53 1696 216 2290 469 159 68 277 123 272 128 -2 2 -37 -9
-79 -26 -337 -129 -1018 -254 -1698 -310 -481 -39 -1259 -64 -1688 -54 l-283
7 68 22 c89 28 155 63 225 119 62 49 148 156 175 217 l16 38 151 36 c494 119
1228 274 1297 275 11 0 19 -16 28 -53 17 -76 89 -194 156 -256 111 -100 284
-161 421 -147 151 15 273 75 372 181 207 221 199 568 -17 784 -126 126 -329
186 -506 151z m197 -141 c119 -25 234 -114 289 -221 16 -32 29 -59 29 -62 0
-9 -30 0 -43 13 -9 10 -8 11 8 5 16 -6 14 -1 -9 24 -16 17 -33 29 -38 26 -5
-3 -7 0 -6 7 4 18 -75 75 -139 99 -78 30 -159 40 -235 30 -73 -9 -100 -18
-111 -36 -4 -7 -13 -11 -20 -9 -17 7 -93 -39 -89 -54 1 -7 -2 -9 -8 -6 -14 8
-43 -17 -83 -70 -29 -39 -29 -39 -23 -10 17 72 113 183 195 224 91 47 187 60
283 40z m-2593 -64 c92 -24 163 -65 231 -134 82 -83 152 -208 116 -208 -8 0
-12 6 -9 14 10 24 -117 138 -202 181 -95 47 -159 62 -263 62 -97 0 -175 -20
-266 -68 -78 -41 -192 -144 -180 -163 5 -8 3 -9 -6 -4 -9 6 -12 4 -8 -7 4 -9
0 -15 -8 -15 -35 0 34 124 111 203 65 66 174 129 249 144 66 13 177 11 235 -5z
m2610 -57 c11 -11 12 -10 6 2 -6 10 -1 8 13 -4 12 -11 22 -16 22 -12 0 4 7 0
16 -8 8 -9 20 -13 26 -10 6 4 8 3 5 -3 -3 -5 8 -20 24 -32 17 -13 43 -49 59
-82 15 -32 29 -57 31 -55 2 3 2 -32 1 -77 -5 -113 -6 -126 -11 -121 -2 2 -12
-13 -22 -34 -9 -20 -28 -49 -42 -63 -14 -15 -23 -31 -19 -35 4 -5 3 -6 -2 -1
-5 4 -17 0 -26 -8 -51 -46 -209 -72 -263 -44 -15 9 -18 8 -11 -3 6 -11 5 -11
-9 1 -9 7 -17 10 -17 5 0 -5 -5 -1 -11 9 -5 9 -15 17 -20 17 -19 0 -80 54
-108 94 -34 52 -53 109 -53 155 1 53 28 158 48 189 10 15 17 31 16 35 -1 5 2
6 7 3 5 -4 16 2 23 12 16 23 102 74 111 66 3 -3 14 -1 24 5 26 15 166 14 182
-1z m-2609 -87 c27 -11 50 -17 50 -15 0 2 8 -4 18 -13 47 -45 74 -63 84 -57 7
5 8 2 3 -6 -4 -7 -3 -15 2 -19 16 -10 51 -74 67 -121 9 -26 16 -79 16 -125 0
-71 -4 -89 -34 -150 -31 -66 -110 -155 -135 -155 -6 0 -11 -4 -11 -10 0 -5 -7
-10 -15 -10 -8 0 -35 -9 -60 -21 -35 -16 -58 -20 -112 -16 -84 5 -103 10 -173
44 -67 33 -124 89 -151 152 -11 25 -25 56 -31 68 -11 22 -13 112 -5 183 6 46
34 106 74 157 18 22 30 42 28 45 -3 3 1 5 8 5 6 0 30 11 53 25 94 60 227 76
324 39z"/>
<path d="M9700 7379 c-148 -59 -176 -257 -49 -349 131 -94 309 -2 309 160 0
135 -140 237 -260 189z"/>
<path d="M7080 7281 c-115 -36 -180 -121 -180 -233 1 -140 97 -238 235 -238
100 0 189 62 219 153 51 154 -41 302 -199 320 -27 3 -61 2 -75 -2z"/>
<path d="M11180 6777 c-61 -41 -142 -86 -260 -143 -271 -132 -580 -239 -975
-339 -77 -20 -156 -40 -177 -46 -311 -82 -1125 -198 -1578 -225 -58 -3 -118
-7 -135 -9 -136 -15 -653 -27 -980 -23 -214 3 -374 1 -355 -3 69 -15 388 -59
535 -73 689 -68 1468 -34 2155 95 248 46 351 71 580 139 523 157 931 363 1178
595 62 59 66 68 12 32z"/>
<path d="M12154 6711 c-74 -27 -99 -41 -326 -183 -204 -127 -208 -130 -208
-163 0 -39 29 -65 73 -65 17 0 37 -10 50 -24 12 -13 96 -142 186 -286 l163
-262 -6 -60 c-8 -68 8 -98 51 -98 24 0 249 135 293 176 20 20 23 28 15 50 -11
30 -22 37 -83 54 -38 10 -48 19 -88 82 -25 39 -48 76 -50 83 -3 7 35 37 86 69
201 128 267 239 225 382 -32 112 -113 217 -191 250 -45 19 -128 16 -190 -5z
m59 -214 c35 -27 81 -103 91 -153 14 -63 -29 -125 -124 -181 l-37 -22 -95 152
c-107 172 -107 152 -1 208 68 36 115 35 166 -4z"/>
<path d="M3713 6675 c-100 -31 -213 -133 -292 -264 -171 -282 -132 -500 117
-662 152 -100 299 -120 427 -60 90 42 192 145 258 262 132 233 122 419 -31
567 -140 137 -338 201 -479 157z m286 -179 c74 -39 107 -112 90 -200 -27 -145
-200 -401 -304 -450 -76 -37 -180 -4 -225 70 -32 51 -24 147 18 238 73 157
185 301 265 341 56 28 102 28 156 1z"/>
<path d="M4467 6302 c-21 -23 -21 -45 -1 -98 l16 -42 -117 -259 c-65 -142
-127 -278 -138 -302 -17 -36 -30 -48 -73 -67 -54 -24 -74 -53 -60 -90 7 -17
185 -104 214 -104 32 0 55 35 48 72 -21 100 -23 90 95 351 61 136 114 246 116
244 2 -3 51 -194 108 -427 58 -232 112 -437 121 -455 9 -20 29 -39 53 -50 54
-24 76 -9 116 78 18 40 90 198 159 352 70 154 136 289 147 300 11 11 34 25 52
31 37 12 65 58 50 83 -13 23 -173 100 -209 100 -17 1 -37 -6 -44 -14 -12 -14
-11 -26 6 -121 5 -24 -11 -67 -70 -199 -42 -93 -80 -173 -84 -177 -4 -4 -45
144 -91 330 -64 258 -88 342 -105 358 -25 24 -244 124 -273 124 -11 0 -27 -8
-36 -18z"/>
<path d="M11275 6235 c-84 -22 -211 -86 -271 -139 -29 -26 -64 -71 -84 -108
-30 -55 -35 -74 -38 -153 -5 -114 13 -187 79 -321 64 -132 143 -220 237 -266
60 -30 75 -33 152 -33 190 1 397 121 472 273 31 63 33 73 32 167 -1 82 -6 113
-29 175 -78 211 -183 343 -315 394 -62 24 -163 29 -235 11z m100 -180 c123
-71 278 -419 245 -547 -16 -58 -63 -105 -124 -123 -114 -34 -197 33 -301 244
-125 252 -112 391 41 446 46 17 85 11 139 -20z"/>
<path d="M10530 5909 c-86 -27 -161 -57 -167 -66 -28 -37 -14 -62 57 -106 32
-20 39 -34 76 -147 23 -69 39 -128 35 -131 -6 -6 -293 -99 -304 -99 -10 0 -77
226 -77 257 0 16 7 38 15 49 24 31 19 81 -9 100 -24 15 -33 13 -184 -35 -88
-28 -165 -57 -171 -65 -22 -26 -9 -69 29 -93 19 -12 42 -29 50 -37 9 -8 60
-155 114 -326 l98 -310 -21 -40 c-12 -22 -21 -51 -21 -64 0 -25 28 -56 51 -56
9 0 86 23 172 50 171 55 189 68 167 120 -7 16 -26 34 -49 44 -47 22 -51 29
-90 153 -17 56 -34 109 -37 117 -4 11 28 25 143 62 81 25 153 48 159 51 11 4
84 -216 84 -254 0 -12 -9 -40 -20 -61 -18 -33 -19 -44 -9 -66 7 -15 23 -29 35
-32 13 -3 88 16 186 48 l163 53 3 33 c4 39 -9 58 -54 77 -18 7 -39 26 -47 42
-8 15 -56 160 -106 321 -93 296 -96 311 -65 357 8 11 14 30 14 42 0 25 -32 63
-52 62 -7 0 -83 -23 -168 -50z"/>
<path d="M5392 5898 c-18 -18 -14 -63 9 -102 24 -41 31 -11 -82 -376 -100
-322 -94 -309 -145 -332 -45 -20 -62 -48 -50 -86 8 -25 2 -23 402 -146 256
-79 359 -107 378 -102 31 8 44 34 75 146 l20 72 -24 24 c-13 13 -29 24 -36 24
-6 0 -37 -15 -68 -32 -51 -30 -64 -33 -136 -33 -60 1 -103 8 -170 29 -49 16
-91 30 -93 32 -6 4 190 629 205 652 8 13 29 30 47 37 40 17 59 55 46 90 -5 14
-11 25 -14 25 -2 0 -69 20 -148 45 -148 46 -195 54 -216 33z"/>
<path d="M6230 5651 c-13 -26 -13 -68 1 -77 6 -3 17 -21 24 -38 13 -30 8 -60
-55 -352 -74 -341 -65 -318 -139 -374 -29 -22 -34 -54 -14 -79 15 -18 51 -30
173 -57 85 -19 165 -32 178 -29 12 3 28 17 34 31 10 21 8 33 -17 77 l-28 53
67 314 c38 173 71 321 76 329 4 8 25 26 46 41 40 27 55 69 35 99 -9 15 -283
80 -338 81 -22 0 -36 -6 -43 -19z"/>
<path d="M9359 5625 c-253 -48 -363 -167 -329 -357 30 -168 121 -229 367 -248
163 -13 201 -27 222 -82 31 -83 -16 -157 -113 -179 -99 -22 -144 1 -184 92
-24 57 -67 77 -130 60 -70 -19 -98 -72 -81 -152 15 -67 56 -113 121 -135 41
-13 74 -16 172 -11 361 16 536 182 460 438 -22 74 -89 141 -164 163 -30 9
-116 21 -190 27 -74 6 -149 18 -165 25 -40 18 -65 62 -65 111 0 71 52 113 139
113 61 0 91 -24 116 -93 20 -55 43 -71 106 -70 57 1 84 15 105 55 21 40 14 94
-20 152 -52 88 -195 124 -367 91z"/>
<path d="M6660 5551 c-16 -31 -12 -57 14 -88 13 -15 26 -37 30 -48 6 -19 -56
-596 -70 -651 -3 -13 -24 -38 -45 -55 -29 -23 -39 -38 -39 -60 0 -41 29 -55
140 -68 80 -9 98 -8 117 4 32 22 31 71 -3 106 -17 18 -26 39 -27 61 -1 47 56
538 63 538 3 0 108 -168 235 -373 126 -204 242 -384 256 -399 22 -22 37 -28
72 -28 26 0 49 6 56 14 8 10 101 739 101 795 0 8 27 37 63 68 l26 22 38 -35
38 -35 6 -327 c3 -180 2 -336 -2 -347 -4 -11 -21 -35 -38 -52 -36 -38 -39 -65
-9 -95 21 -21 25 -21 216 -15 107 4 282 7 389 7 243 0 233 -6 233 144 0 97 -2
106 -22 120 -35 25 -53 19 -103 -33 -71 -74 -124 -93 -272 -99 l-123 -5 0 147
0 146 71 0 c79 0 98 -7 150 -57 29 -28 43 -34 70 -31 53 5 63 35 54 180 -7
109 -9 120 -30 134 -30 20 -67 10 -93 -25 -31 -43 -80 -61 -161 -61 l-71 0 0
146 0 146 133 -4 c154 -5 196 -20 266 -93 46 -48 78 -57 105 -29 13 12 16 38
16 120 0 159 39 147 -428 138 -213 -4 -395 -11 -404 -16 -10 -5 -18 -16 -18
-24 0 -10 -7 -7 -22 10 -20 23 -36 27 -125 37 -56 7 -109 9 -117 6 -27 -11
-38 -54 -22 -86 8 -15 22 -33 30 -40 10 -9 16 -30 16 -60 0 -51 -36 -360 -42
-366 -2 -3 -82 122 -178 277 -96 155 -184 293 -195 306 -18 20 -37 26 -130 38
-158 19 -202 18 -215 -5z"/>
<path d="M5540 3925 l0 -165 90 0 c83 0 90 2 90 20 0 16 -8 19 -62 22 l-63 3
0 50 0 50 58 3 c49 3 57 6 57 22 0 18 -7 20 -61 20 l-60 0 3 48 3 47 63 3 c54
3 62 6 62 22 0 18 -7 20 -90 20 l-90 0 0 -165z"/>
<path d="M5993 4058 c-6 -18 -32 -91 -57 -162 -25 -71 -46 -131 -46 -133 0 -2
12 -3 27 -1 21 2 29 10 37 36 l9 32 69 0 69 0 15 -35 c11 -27 20 -35 40 -35
17 0 25 5 22 13 -3 6 -29 81 -59 165 -54 152 -54 152 -85 152 -26 0 -32 -5
-41 -32z"/>
<path d="M6382 4065 c-25 -21 -32 -34 -32 -64 0 -45 26 -73 85 -91 81 -25 105
-58 69 -94 -23 -23 -62 -19 -88 9 -28 30 -66 34 -66 6 0 -11 14 -31 31 -45 24
-20 41 -26 81 -26 64 0 108 38 108 94 0 46 -23 69 -91 91 -64 21 -79 31 -79
56 0 45 63 65 94 30 21 -23 76 -34 76 -15 0 7 -10 25 -23 40 -19 22 -34 28
-78 32 -49 4 -59 1 -87 -23z"/>
<path d="M6784 3986 c51 -93 56 -109 56 -165 0 -58 1 -61 25 -61 24 0 25 3 25
57 0 49 7 71 55 165 l56 108 -29 0 c-26 0 -32 -7 -67 -82 l-39 -82 -39 82
c-36 75 -42 82 -69 82 l-29 0 55 -104z"/>
<path d="M7429 4061 c-34 -34 -38 -77 -11 -110 9 -12 46 -32 82 -44 58 -20 65
-25 68 -52 7 -55 -60 -75 -102 -30 -25 27 -66 34 -66 11 0 -8 10 -27 23 -41
27 -32 100 -45 146 -25 35 14 65 70 55 103 -7 25 -33 57 -45 57 -5 0 -33 9
-63 21 -62 23 -78 49 -50 80 24 26 61 24 89 -7 24 -26 55 -29 62 -7 3 7 -9 26
-25 43 -26 26 -38 30 -82 30 -44 0 -56 -4 -81 -29z"/>
<path d="M7900 4083 c-61 -23 -110 -95 -110 -163 0 -42 35 -105 72 -133 18
-14 48 -22 85 -24 105 -7 173 57 173 162 0 65 -26 114 -76 142 -38 22 -108 29
-144 16z m105 -47 c88 -37 87 -185 -2 -223 -93 -38 -175 41 -152 145 9 40 43
79 73 85 39 8 46 7 81 -7z"/>
<path d="M8300 3925 l0 -165 80 0 c73 0 80 2 80 20 0 18 -7 20 -55 20 l-55 0
0 145 0 145 -25 0 -25 0 0 -165z"/>
<path d="M8630 3960 c0 -128 0 -130 28 -161 54 -60 171 -48 207 21 11 21 15
61 15 150 l0 120 -25 0 -25 0 0 -119 c0 -98 -3 -122 -17 -140 -27 -32 -73 -37
-106 -11 -27 21 -27 22 -27 146 l0 124 -25 0 -25 0 0 -130z"/>
<path d="M9057 4083 c-20 -19 -5 -33 38 -33 l45 0 0 -145 0 -145 25 0 24 0 3
143 3 142 43 3 c34 3 42 7 42 23 0 18 -8 19 -108 19 -60 0 -112 -3 -115 -7z"/>
<path d="M9460 3925 l0 -165 25 0 25 0 0 165 0 165 -25 0 -25 0 0 -165z"/>
<path d="M9772 4074 c-116 -59 -118 -235 -3 -294 108 -55 229 6 246 125 9 55
-20 123 -66 155 -43 31 -130 38 -177 14z m122 -38 c48 -20 66 -51 66 -114 0
-46 -4 -58 -28 -82 -39 -39 -92 -48 -134 -23 -41 24 -58 56 -58 108 0 54 18
87 60 107 42 22 51 22 94 4z"/>
<path d="M10190 3925 l0 -165 25 0 24 0 3 123 3 122 80 -122 c70 -106 84 -122
108 -123 l27 0 0 165 0 165 -25 0 -24 0 -3 -122 -3 -121 -80 121 c-70 106 -83
122 -107 122 l-28 0 0 -165z"/>
</g>
</svg>
